# xmcd
#
# Track frame offsets: 
#        150
#        7655
#        26252
#        45753
#        63819
#        85497
#        99876
#        116614
#        140363
#        159804
#        193104
#        206006
#        226672
#
# Disc length: 3354 seconds
#
# Revision: 1
# Processed by: cddbd v1.5.2PL0 Copyright (c) Steve Scherf et al.
# Submitted via: ExactAudioCopyFreeDBPlugin 1.0
#
DISCID=890d180d
DTITLE=Bernie Marsden - Big Boy Blue
DYEAR=2017
DGENRE=Blues
TTITLE0=Burn Your Bridges
TTITLE1=Working For The CSA
TTITLE2=Man Or Mouse
TTITLE3=Dream On
TTITLE4=Downhome Blues
TTITLE5=Lady Friend
TTITLE6=Memphis
TTITLE7=Funny People
TTITLE8=Loved Another Woman
TTITLE9=Pick It Up
TTITLE10=Do It If You Wanna
TTITLE11=Place In My Heart
TTITLE12=Tone Down
EXTD=
EXTT0=
EXTT1=
EXTT2=
EXTT3=
EXTT4=
EXTT5=
EXTT6=
EXTT7=
EXTT8=
EXTT9=
EXTT10=
EXTT11=
EXTT12=
PLAYORDER=
